<?xml version="1.0" encoding="UTF-8" standalone="no"?>
<!DOCTYPE svg PUBLIC "-//W3C//DTD SVG 1.1//EN"
 "http://www.w3.org/Graphics/SVG/1.1/DTD/svg11.dtd">
<!-- Generated by graphviz version 2.36.0 (20140111.2315)
 -->
<!-- Title: domain_domainlogic_actors Pages: 1 -->
<svg width="440pt" height="72pt"
 viewBox="0.00 0.00 440.00 72.00" xmlns="http://www.w3.org/2000/svg" xmlns:xlink="http://www.w3.org/1999/xlink">
<g id="graph0" class="graph" transform="scale(1 1) rotate(0) translate(4 68)">
<title>domain_domainlogic_actors</title>
<polygon fill="white" stroke="none" points="-4,4 -4,-68 436,-68 436,4 -4,4"/>
<!-- domain_domainlogic_actors_User -->
<g id="domain:domainlogic:actors:User" class="node"><title>domain_domainlogic_actors_User</title>
<g id="a_domain:domainlogic:actors:User_0"><a xlink:href="domain:domainlogic:actors:User" xlink:title="domain:domainlogic:actors:User">
<polygon fill="#dddddd" stroke="none" points="333,-30 333,-62 432,-62 432,-30 333,-30"/>
<text text-anchor="start" x="341.5" y="-42.3" font-family="Times,serif" font-size="14.00" fill="#0000cc">Пользователь</text>
</a>
</g>
</g>
<!-- domain_domainlogic_actors_AuthorizedUser -->
<g id="domain:domainlogic:actors:AuthorizedUser" class="node"><title>domain_domainlogic_actors_AuthorizedUser</title>
<g id="a_domain:domainlogic:actors:AuthorizedUser_1"><a xlink:href="domain:domainlogic:actors:AuthorizedUser" xlink:title="domain:domainlogic:actors:AuthorizedUser">
<polygon fill="#dddddd" stroke="none" points="0,-30 0,-62 296,-62 296,-30 0,-30"/>
<text text-anchor="start" x="56.5" y="-42.3" font-family="Times,serif" font-size="14.00" fill="#0000cc">Авторизованный пользователь</text>
</a>
</g>
<g id="a_domain:domainlogic:actors:AuthorizedUser_2"><a xlink:href="domain:domainlogic:actors:AutorizedUser:UUID" xlink:title="&lt;TABLE&gt;">
<polygon fill="#ffffff" stroke="none" points="0,1 0,-30 296,-30 296,1 0,1"/>
<text text-anchor="start" x="8.5" y="-10.8" font-family="Times,serif" font-size="14.00" fill="#005a9c">domain:domainlogic:actors:AutorizedUser:UUID</text>
</a>
</g>
</g>
<!-- domain_domainlogic_actors_AuthorizedUser&#45;&gt;domain_domainlogic_actors_User -->
<g id="edge1" class="edge"><title>domain_domainlogic_actors_AuthorizedUser:domain_domainlogic_actors_AuthorizedUser&#45;&gt;domain_domainlogic_actors_User</title>
<path fill="none" stroke="black" d="M296,-46C304.485,-46 313.447,-46 322.243,-46"/>
<polygon fill="none" stroke="black" points="322.454,-49.5001 332.454,-46 322.454,-42.5001 322.454,-49.5001"/>
</g>
</g>
</svg>
