<?xml version="1.0" encoding="UTF-8" standalone="no"?>
<!DOCTYPE svg PUBLIC "-//W3C//DTD SVG 1.1//EN"
 "http://www.w3.org/Graphics/SVG/1.1/DTD/svg11.dtd">
<!-- Generated by graphviz version 2.36.0 (20140111.2315)
 -->
<!-- Title: domain_domainlogic Pages: 1 -->
<svg width="1472pt" height="771pt"
 viewBox="0.00 0.00 1472.00 771.00" xmlns="http://www.w3.org/2000/svg" xmlns:xlink="http://www.w3.org/1999/xlink">
<g id="graph0" class="graph" transform="scale(1 1) rotate(0) translate(4 767)">
<title>domain_domainlogic</title>
<polygon fill="white" stroke="none" points="-4,4 -4,-767 1468,-767 1468,4 -4,4"/>
<!-- domain_domainlogic_actors_User -->
<g id="domain:domainlogic:actors:User" class="node"><title>domain_domainlogic_actors_User</title>
<g id="a_domain:domainlogic:actors:User_0"><a xlink:href="domain:domainlogic:actors:User" xlink:title="domain:domainlogic:actors:User">
<polygon fill="#dddddd" stroke="none" points="353,-576 353,-608 452,-608 452,-576 353,-576"/>
<text text-anchor="start" x="361.5" y="-588.3" font-family="Times,serif" font-size="14.00" fill="#0000cc">Пользователь</text>
</a>
</g>
</g>
<!-- domain_domainlogic_actors_AuthorizedUser -->
<g id="domain:domainlogic:actors:AuthorizedUser" class="node"><title>domain_domainlogic_actors_AuthorizedUser</title>
<g id="a_domain:domainlogic:actors:AuthorizedUser_1"><a xlink:href="domain:domainlogic:actors:AuthorizedUser" xlink:title="domain:domainlogic:actors:AuthorizedUser">
<polygon fill="#dddddd" stroke="none" points="0,-576 0,-608 296,-608 296,-576 0,-576"/>
<text text-anchor="start" x="56.5" y="-588.3" font-family="Times,serif" font-size="14.00" fill="#0000cc">Авторизованный пользователь</text>
</a>
</g>
<g id="a_domain:domainlogic:actors:AuthorizedUser_2"><a xlink:href="domain:domainlogic:actors:AutorizedUser:UUID" xlink:title="&lt;TABLE&gt;">
<polygon fill="#ffffff" stroke="none" points="0,-545 0,-576 296,-576 296,-545 0,-545"/>
<text text-anchor="start" x="8.5" y="-556.8" font-family="Times,serif" font-size="14.00" fill="#005a9c">domain:domainlogic:actors:AutorizedUser:UUID</text>
</a>
</g>
</g>
<!-- domain_domainlogic_actors_AuthorizedUser&#45;&gt;domain_domainlogic_actors_User -->
<g id="edge8" class="edge"><title>domain_domainlogic_actors_AuthorizedUser:domain_domainlogic_actors_AuthorizedUser&#45;&gt;domain_domainlogic_actors_User</title>
<path fill="none" stroke="black" d="M296,-592C310.959,-592 327.117,-592 342.169,-592"/>
<polygon fill="none" stroke="black" points="342.384,-595.5 352.384,-592 342.384,-588.5 342.384,-595.5"/>
</g>
<!-- domain_domainlogic_school_Resource -->
<g id="domain:domainlogic:school:Resource" class="node"><title>domain_domainlogic_school_Resource</title>
<g id="a_domain:domainlogic:school:Resource_3"><a xlink:href="domain:domainlogic:school:Resource" xlink:title="domain:domainlogic:school:Resource">
<polygon fill="#dddddd" stroke="none" points="1188,-420 1188,-452 1446,-452 1446,-420 1188,-420"/>
<text text-anchor="start" x="1296.5" y="-432.3" font-family="Times,serif" font-size="14.00" fill="#0000cc">Ресурс</text>
</a>
</g>
<g id="a_domain:domainlogic:school:Resource_4"><a xlink:href="domain:domainlogic:school:Resource:URI" xlink:title="&lt;TABLE&gt;">
<polygon fill="#ffffff" stroke="none" points="1188,-389 1188,-420 1446,-420 1446,-389 1188,-389"/>
<text text-anchor="start" x="1196.5" y="-400.8" font-family="Times,serif" font-size="14.00" fill="#005a9c">domain:domainlogic:school:Resource:URI</text>
</a>
</g>
</g>
<!-- domain_domainlogic_school_Union -->
<g id="domain:domainlogic:school:Union" class="node"><title>domain_domainlogic_school_Union</title>
<g id="a_domain:domainlogic:school:Union_5"><a xlink:href="domain:domainlogic:school:Union" xlink:title="domain:domainlogic:school:Union">
<polygon fill="#dddddd" stroke="none" points="858,-731 858,-763 1118,-763 1118,-731 858,-731"/>
<text text-anchor="start" x="948.5" y="-743.3" font-family="Times,serif" font-size="14.00" fill="#0000cc">Объединение</text>
</a>
</g>
<g id="a_domain:domainlogic:school:Union_6"><a xlink:href="domain:domainlogic:school:Union:UUID" xlink:title="&lt;TABLE&gt;">
<polygon fill="#ffffff" stroke="none" points="858,-700 858,-731 1118,-731 1118,-700 858,-700"/>
<text text-anchor="start" x="870.5" y="-711.8" font-family="Times,serif" font-size="14.00" fill="#005a9c">domain:domainlogic:school:Union:UUID</text>
</a>
</g>
<g id="a_domain:domainlogic:school:Union_7"><a xlink:href="domain:domainlogic:school:Union:dtOpen" xlink:title="&lt;TABLE&gt;">
<polygon fill="#ffffff" stroke="none" points="858,-669 858,-700 1118,-700 1118,-669 858,-669"/>
<text text-anchor="start" x="867.5" y="-680.8" font-family="Times,serif" font-size="14.00" fill="#005a9c">domain:domainlogic:school:Union:dtOpen</text>
</a>
</g>
<g id="a_domain:domainlogic:school:Union_8"><a xlink:href="domain:domainlogic:school:Union:dtClose" xlink:title="&lt;TABLE&gt;">
<polygon fill="#ffffff" stroke="none" points="858,-638 858,-669 1118,-669 1118,-638 858,-638"/>
<text text-anchor="start" x="867" y="-649.8" font-family="Times,serif" font-size="14.00" fill="#005a9c">domain:domainlogic:school:Union:dtClose</text>
</a>
</g>
<g id="a_domain:domainlogic:school:Union_9"><a xlink:href="domain:domainlogic:school:Union:mission" xlink:title="&lt;TABLE&gt;">
<polygon fill="#ffffff" stroke="none" points="858,-607 858,-638 1118,-638 1118,-607 858,-607"/>
<text text-anchor="start" x="866.5" y="-618.8" font-family="Times,serif" font-size="14.00" fill="#005a9c">domain:domainlogic:school:Union:mission</text>
</a>
</g>
</g>
<!-- domain_domainlogic_school_Union&#45;&gt;domain_domainlogic_school_Resource -->
<g id="edge9" class="edge"><title>domain_domainlogic_school_Union:domain_domainlogic_school_Union&#45;&gt;domain_domainlogic_school_Resource</title>
<path fill="none" stroke="black" d="M1119,-747C1182.31,-747 1139.27,-669.347 1170,-614 1201.8,-556.732 1249.02,-497.634 1281.08,-460.176"/>
<polygon fill="none" stroke="black" points="1283.8,-462.379 1287.68,-452.519 1278.5,-457.808 1283.8,-462.379"/>
</g>
<!-- domain_domainlogic_school_HistoryName -->
<g id="domain:domainlogic:school:HistoryName" class="node"><title>domain_domainlogic_school_HistoryName</title>
<g id="a_domain:domainlogic:school:HistoryName_10"><a xlink:href="domain:domainlogic:school:HistoryName" xlink:title="domain:domainlogic:school:HistoryName">
<polygon fill="#dddddd" stroke="none" points="1170,-715 1170,-747 1464,-747 1464,-715 1170,-715"/>
<text text-anchor="start" x="1232" y="-727.3" font-family="Times,serif" font-size="14.00" fill="#0000cc">Историческое наименование</text>
</a>
</g>
<g id="a_domain:domainlogic:school:HistoryName_11"><a xlink:href="domain:domainlogic:school:HistoryName:name" xlink:title="&lt;TABLE&gt;">
<polygon fill="#ffffff" stroke="none" points="1170,-684 1170,-715 1464,-715 1464,-684 1170,-684"/>
<text text-anchor="start" x="1182" y="-695.8" font-family="Times,serif" font-size="14.00" fill="#005a9c">domain:domainlogic:school:HistoryName:name</text>
</a>
</g>
<g id="a_domain:domainlogic:school:HistoryName_12"><a xlink:href="domain:domainlogic:school:HistoryName:dtStart" xlink:title="&lt;TABLE&gt;">
<polygon fill="#ffffff" stroke="none" points="1170,-653 1170,-684 1464,-684 1464,-653 1170,-653"/>
<text text-anchor="start" x="1178.5" y="-664.8" font-family="Times,serif" font-size="14.00" fill="#005a9c">domain:domainlogic:school:HistoryName:dtStart</text>
</a>
</g>
<g id="a_domain:domainlogic:school:HistoryName_13"><a xlink:href="domain:domainlogic:school:HistoryName:dtEnd" xlink:title="&lt;TABLE&gt;">
<polygon fill="#ffffff" stroke="none" points="1170,-622 1170,-653 1464,-653 1464,-622 1170,-622"/>
<text text-anchor="start" x="1180.5" y="-633.8" font-family="Times,serif" font-size="14.00" fill="#005a9c">domain:domainlogic:school:HistoryName:dtEnd</text>
</a>
</g>
</g>
<!-- domain_domainlogic_school_Union&#45;&gt;domain_domainlogic_school_HistoryName -->
<g id="edge4" class="edge"><title>domain_domainlogic_school_Union&#45;&gt;domain_domainlogic_school_HistoryName</title>
<path fill="none" stroke="black" d="M1130.64,-685C1143.65,-685 1156.84,-685 1169.89,-685"/>
<polygon fill="none" stroke="black" points="1130.24,-685 1124.24,-689 1118.24,-685 1124.24,-681 1130.24,-685"/>
<text text-anchor="middle" x="1165.89" y="-673.8" font-family="Times,serif" font-size="14.00">*</text>
</g>
<!-- domain_domainlogic_school_School -->
<g id="domain:domainlogic:school:School" class="node"><title>domain_domainlogic_school_School</title>
<g id="a_domain:domainlogic:school:School_14"><a xlink:href="domain:domainlogic:school:School" xlink:title="domain:domainlogic:school:School">
<polygon fill="#dddddd" stroke="none" points="18,-699 18,-731 278,-731 278,-699 18,-699"/>
<text text-anchor="start" x="127.5" y="-711.3" font-family="Times,serif" font-size="14.00" fill="#0000cc">Школа</text>
</a>
</g>
<g id="a_domain:domainlogic:school:School_15"><a xlink:href="domain:domainlogic:school:Union:mission" xlink:title="&lt;TABLE&gt;">
<polygon fill="#ffffff" stroke="none" points="18,-668 18,-699 278,-699 278,-668 18,-668"/>
<text text-anchor="start" x="26.5" y="-679.8" font-family="Times,serif" font-size="14.00" fill="#005a9c">domain:domainlogic:school:Union:mission</text>
</a>
</g>
</g>
<!-- domain_domainlogic_school_School&#45;&gt;domain_domainlogic_school_Union -->
<g id="edge10" class="edge"><title>domain_domainlogic_school_School:domain_domainlogic_school_School&#45;&gt;domain_domainlogic_school_Union</title>
<path fill="none" stroke="black" d="M279,-715C303.152,-715 307.998,-724.317 332,-727 449.904,-740.181 793.686,-708.116 806,-707 819.445,-705.781 833.434,-704.358 847.412,-702.833"/>
<polygon fill="none" stroke="black" points="848.028,-706.286 857.581,-701.705 847.256,-699.329 848.028,-706.286"/>
</g>
<!-- domain_domainlogic_school_Staff -->
<g id="domain:domainlogic:school:Staff" class="node"><title>domain_domainlogic_school_Staff</title>
<g id="a_domain:domainlogic:school:Staff_16"><a xlink:href="domain:domainlogic:school:Staff" xlink:title="domain:domainlogic:school:Staff">
<polygon fill="#dddddd" stroke="none" points="333,-684 333,-716 472,-716 472,-684 333,-684"/>
<text text-anchor="start" x="341.5" y="-696.3" font-family="Times,serif" font-size="14.00" fill="#0000cc">Школьный персонал</text>
</a>
</g>
</g>
<!-- domain_domainlogic_school_School&#45;&gt;domain_domainlogic_school_Staff -->
<g id="edge1" class="edge"><title>domain_domainlogic_school_School&#45;&gt;domain_domainlogic_school_Staff</title>
<path fill="none" stroke="black" d="M290.504,-700C304.95,-700 319.119,-700 332.237,-700"/>
<polygon fill="none" stroke="black" points="290.322,-700 284.322,-704 278.322,-700 284.322,-696 290.322,-700"/>
</g>
<!-- domain_domainlogic_school_Year -->
<g id="domain:domainlogic:school:Year" class="node"><title>domain_domainlogic_school_Year</title>
<g id="a_domain:domainlogic:school:Year_17"><a xlink:href="domain:domainlogic:school:Year" xlink:title="domain:domainlogic:school:Year">
<polygon fill="#dddddd" stroke="none" points="362,-630 362,-662 443,-662 443,-630 362,-630"/>
<text text-anchor="start" x="370.5" y="-642.3" font-family="Times,serif" font-size="14.00" fill="#0000cc">Параллель</text>
</a>
</g>
</g>
<!-- domain_domainlogic_school_School&#45;&gt;domain_domainlogic_school_Year -->
<g id="edge5" class="edge"><title>domain_domainlogic_school_School&#45;&gt;domain_domainlogic_school_Year</title>
<path fill="none" stroke="black" d="M290.33,-669.715C316.364,-664.136 341.512,-658.748 361.238,-654.52"/>
<polygon fill="none" stroke="black" points="290.056,-669.774 285.027,-674.942 278.322,-672.288 283.351,-667.12 290.056,-669.774"/>
<text text-anchor="middle" x="357.238" y="-643.32" font-family="Times,serif" font-size="14.00">*</text>
</g>
<!-- domain_domainlogic_school_Staff&#45;&gt;domain_domainlogic_school_Union -->
<g id="edge11" class="edge"><title>domain_domainlogic_school_Staff:domain_domainlogic_school_Staff&#45;&gt;domain_domainlogic_school_Union</title>
<path fill="none" stroke="black" d="M472.019,-698.25C563.663,-695.892 728.96,-691.639 847.584,-688.587"/>
<polygon fill="none" stroke="black" points="847.927,-692.079 857.834,-688.323 847.747,-685.082 847.927,-692.079"/>
</g>
<!-- domain_domainlogic_school_Year&#45;&gt;domain_domainlogic_school_Union -->
<g id="edge12" class="edge"><title>domain_domainlogic_school_Year:domain_domainlogic_school_Year&#45;&gt;domain_domainlogic_school_Union</title>
<path fill="none" stroke="black" d="M443.158,-648.619C524.46,-654.058 715.016,-666.806 847.466,-675.666"/>
<polygon fill="none" stroke="black" points="847.485,-679.175 857.696,-676.35 847.952,-672.19 847.485,-679.175"/>
</g>
<!-- domain_domainlogic_school_Form -->
<g id="domain:domainlogic:school:Form" class="node"><title>domain_domainlogic_school_Form</title>
<g id="a_domain:domainlogic:school:Form_18"><a xlink:href="domain:domainlogic:school:Form" xlink:title="domain:domainlogic:school:Form">
<polygon fill="#dddddd" stroke="none" points="631,-604 631,-636 684,-636 684,-604 631,-604"/>
<text text-anchor="start" x="639.5" y="-616.3" font-family="Times,serif" font-size="14.00" fill="#0000cc">Класс</text>
</a>
</g>
</g>
<!-- domain_domainlogic_school_Year&#45;&gt;domain_domainlogic_school_Form -->
<g id="edge6" class="edge"><title>domain_domainlogic_school_Year&#45;&gt;domain_domainlogic_school_Form</title>
<path fill="none" stroke="black" d="M454.766,-640.68C507.985,-635.211 588.717,-626.914 629.877,-622.685"/>
<polygon fill="none" stroke="black" points="454.468,-640.711 448.909,-645.303 442.531,-641.938 448.091,-637.345 454.468,-640.711"/>
<text text-anchor="middle" x="625.877" y="-611.485" font-family="Times,serif" font-size="14.00">*</text>
</g>
<!-- domain_domainlogic_school_Form&#45;&gt;domain_domainlogic_school_Union -->
<g id="edge13" class="edge"><title>domain_domainlogic_school_Form:domain_domainlogic_school_Form&#45;&gt;domain_domainlogic_school_Union</title>
<path fill="none" stroke="black" d="M684.193,-624.993C719.435,-631.976 786.09,-645.185 847.91,-657.436"/>
<polygon fill="none" stroke="black" points="847.295,-660.882 857.784,-659.393 848.655,-654.016 847.295,-660.882"/>
</g>
<!-- domain_domainlogic_school_Person -->
<g id="domain:domainlogic:school:Person" class="node"><title>domain_domainlogic_school_Person</title>
<g id="a_domain:domainlogic:school:Person_19"><a xlink:href="domain:domainlogic:school:Person" xlink:title="domain:domainlogic:school:Person">
<polygon fill="#dddddd" stroke="none" points="842,-352 842,-384 1134,-384 1134,-352 842,-352"/>
<text text-anchor="start" x="963" y="-364.3" font-family="Times,serif" font-size="14.00" fill="#0000cc">Персона</text>
</a>
</g>
<g id="a_domain:domainlogic:school:Person_20"><a xlink:href="domain:domainlogic:school:Person:firstName" xlink:title="&lt;TABLE&gt;">
<polygon fill="#ffffff" stroke="none" points="842,-321 842,-352 1134,-352 1134,-321 842,-321"/>
<text text-anchor="start" x="859" y="-332.8" font-family="Times,serif" font-size="14.00" fill="#005a9c">domain:domainlogic:school:Person:firstName</text>
</a>
</g>
<g id="a_domain:domainlogic:school:Person_21"><a xlink:href="domain:domainlogic:school:Person:secondName" xlink:title="&lt;TABLE&gt;">
<polygon fill="#ffffff" stroke="none" points="842,-290 842,-321 1134,-321 1134,-290 842,-290"/>
<text text-anchor="start" x="850.5" y="-301.8" font-family="Times,serif" font-size="14.00" fill="#005a9c">domain:domainlogic:school:Person:secondName</text>
</a>
</g>
<g id="a_domain:domainlogic:school:Person_22"><a xlink:href="domain:domainlogic:school:Person:middleName" xlink:title="&lt;TABLE&gt;">
<polygon fill="#ffffff" stroke="none" points="842,-259 842,-290 1134,-290 1134,-259 842,-259"/>
<text text-anchor="start" x="850.5" y="-270.8" font-family="Times,serif" font-size="14.00" fill="#005a9c">domain:domainlogic:school:Person:middleName</text>
</a>
</g>
<g id="a_domain:domainlogic:school:Person_23"><a xlink:href="domain:domainlogic:school:Person:enName" xlink:title="&lt;TABLE&gt;">
<polygon fill="#ffffff" stroke="none" points="842,-228 842,-259 1134,-259 1134,-228 842,-228"/>
<text text-anchor="start" x="863.5" y="-239.8" font-family="Times,serif" font-size="14.00" fill="#005a9c">domain:domainlogic:school:Person:enName</text>
</a>
</g>
<g id="a_domain:domainlogic:school:Person_24"><a xlink:href="domain:domainlogic:school:Person:DOB" xlink:title="&lt;TABLE&gt;">
<polygon fill="#ffffff" stroke="none" points="842,-197 842,-228 1134,-228 1134,-197 842,-197"/>
<text text-anchor="start" x="872" y="-208.8" font-family="Times,serif" font-size="14.00" fill="#005a9c">domain:domainlogic:school:Person:DOB</text>
</a>
</g>
</g>
<!-- domain_domainlogic_school_Person&#45;&gt;domain_domainlogic_school_Resource -->
<g id="edge14" class="edge"><title>domain_domainlogic_school_Person:domain_domainlogic_school_Person&#45;&gt;domain_domainlogic_school_Resource</title>
<path fill="none" stroke="black" d="M1134,-368C1167.41,-368 1202.94,-376.334 1233.66,-386.392"/>
<polygon fill="none" stroke="black" points="1232.86,-389.817 1243.45,-389.71 1235.1,-383.187 1232.86,-389.817"/>
</g>
<!-- domain_domainlogic_school_Documents -->
<g id="domain:domainlogic:school:Documents" class="node"><title>domain_domainlogic_school_Documents</title>
<g id="a_domain:domainlogic:school:Documents_25"><a xlink:href="domain:domainlogic:school:Documents" xlink:title="domain:domainlogic:school:Documents">
<polygon fill="#dddddd" stroke="none" points="580,-526 580,-558 735,-558 735,-526 580,-526"/>
<text text-anchor="start" x="588.5" y="-538.3" font-family="Times,serif" font-size="14.00" fill="#0000cc">Коллекция документов</text>
</a>
</g>
</g>
<!-- domain_domainlogic_school_Document -->
<g id="domain:domainlogic:school:Document" class="node"><title>domain_domainlogic_school_Document</title>
<g id="a_domain:domainlogic:school:Document_26"><a xlink:href="domain:domainlogic:school:Document" xlink:title="domain:domainlogic:school:Document">
<polygon fill="#dddddd" stroke="none" points="857,-557 857,-589 1119,-589 1119,-557 857,-557"/>
<text text-anchor="start" x="958.5" y="-569.3" font-family="Times,serif" font-size="14.00" fill="#0000cc">Документ</text>
</a>
</g>
<g id="a_domain:domainlogic:school:Document_27"><a xlink:href="domain:domainlogic:school:Document:href" xlink:title="&lt;TABLE&gt;">
<polygon fill="#ffffff" stroke="none" points="857,-526 857,-557 1119,-557 1119,-526 857,-526"/>
<text text-anchor="start" x="865.5" y="-537.8" font-family="Times,serif" font-size="14.00" fill="#005a9c">domain:domainlogic:school:Document:href</text>
</a>
</g>
<g id="a_domain:domainlogic:school:Document_28"><a xlink:href="domain:domainlogic:school:Document:dt" xlink:title="&lt;TABLE&gt;">
<polygon fill="#ffffff" stroke="none" points="857,-495 857,-526 1119,-526 1119,-495 857,-495"/>
<text text-anchor="start" x="871" y="-506.8" font-family="Times,serif" font-size="14.00" fill="#005a9c">domain:domainlogic:school:Document:dt</text>
</a>
</g>
</g>
<!-- domain_domainlogic_school_Documents&#45;&gt;domain_domainlogic_school_Document -->
<g id="edge7" class="edge"><title>domain_domainlogic_school_Documents&#45;&gt;domain_domainlogic_school_Document</title>
<path fill="none" stroke="black" d="M746.928,-542C780.77,-542 820.064,-542 856.941,-542"/>
<polygon fill="none" stroke="black" points="746.721,-542 740.721,-546 734.721,-542 740.721,-538 746.721,-542"/>
<text text-anchor="middle" x="852.941" y="-530.8" font-family="Times,serif" font-size="14.00">*</text>
</g>
<!-- domain_domainlogic_school_Document&#45;&gt;domain_domainlogic_school_Resource -->
<g id="edge15" class="edge"><title>domain_domainlogic_school_Document:domain_domainlogic_school_Document&#45;&gt;domain_domainlogic_school_Resource</title>
<path fill="none" stroke="black" d="M1120,-573C1193.37,-573 1255.91,-505.66 1289.52,-460.623"/>
<polygon fill="none" stroke="black" points="1292.39,-462.634 1295.46,-452.494 1286.73,-458.506 1292.39,-462.634"/>
</g>
<!-- domain_domainlogic_school_LogItem -->
<g id="domain:domainlogic:school:LogItem" class="node"><title>domain_domainlogic_school_LogItem</title>
<g id="a_domain:domainlogic:school:LogItem_29"><a xlink:href="domain:domainlogic:school:LogItem" xlink:title="domain:domainlogic:school:LogItem">
<polygon fill="#dddddd" stroke="none" points="850,-92 850,-124 1127,-124 1127,-92 850,-92"/>
<text text-anchor="start" x="902.5" y="-104.3" font-family="Times,serif" font-size="14.00" fill="#0000cc">Запись в журнале изменений</text>
</a>
</g>
<g id="a_domain:domainlogic:school:LogItem_30"><a xlink:href="domain:domainlogic:school:LogItem:dtCreate" xlink:title="&lt;TABLE&gt;">
<polygon fill="#ffffff" stroke="none" points="850,-61 850,-92 1127,-92 1127,-61 850,-61"/>
<text text-anchor="start" x="858.5" y="-72.8" font-family="Times,serif" font-size="14.00" fill="#005a9c">domain:domainlogic:school:LogItem:dtCreate</text>
</a>
</g>
<g id="a_domain:domainlogic:school:LogItem_31"><a xlink:href="domain:domainlogic:school:LogItem:action" xlink:title="&lt;TABLE&gt;">
<polygon fill="#ffffff" stroke="none" points="850,-30 850,-61 1127,-61 1127,-30 850,-30"/>
<text text-anchor="start" x="865" y="-41.8" font-family="Times,serif" font-size="14.00" fill="#005a9c">domain:domainlogic:school:LogItem:action</text>
</a>
</g>
<g id="a_domain:domainlogic:school:LogItem_32"><a xlink:href="domain:domainlogic:school:LogItem:author" xlink:title="&lt;TABLE&gt;">
<polygon fill="#ffffff" stroke="none" points="850,1 850,-30 1127,-30 1127,1 850,1"/>
<text text-anchor="start" x="864" y="-10.8" font-family="Times,serif" font-size="14.00" fill="#005a9c">domain:domainlogic:school:LogItem:author</text>
</a>
</g>
</g>
<!-- domain_domainlogic_school_LogItem&#45;&gt;domain_domainlogic_school_Resource -->
<g id="edge16" class="edge"><title>domain_domainlogic_school_LogItem:domain_domainlogic_school_LogItem&#45;&gt;domain_domainlogic_school_Resource</title>
<path fill="none" stroke="black" d="M1128,-108C1253.2,-108 1297.12,-294.316 1310.65,-379.451"/>
<polygon fill="none" stroke="black" points="1307.22,-380.196 1312.19,-389.555 1314.14,-379.142 1307.22,-380.196"/>
</g>
<!-- domain_domainlogic_school_TraversalRule -->
<g id="domain:domainlogic:school:TraversalRule" class="node"><title>domain_domainlogic_school_TraversalRule</title>
<g id="a_domain:domainlogic:school:TraversalRule_33"><a xlink:href="domain:domainlogic:school:TraversalRule" xlink:title="domain:domainlogic:school:TraversalRule">
<polygon fill="#dddddd" stroke="none" points="508,-451 508,-483 806,-483 806,-451 508,-451"/>
<text text-anchor="start" x="569.5" y="-463.3" font-family="Times,serif" font-size="14.00" fill="#0000cc">Отношение между ресурсами</text>
</a>
</g>
<g id="a_domain:domainlogic:school:TraversalRule_34"><a xlink:href="domain:domainlogic:school:TraversalRule:role" xlink:title="&lt;TABLE&gt;">
<polygon fill="#ffffff" stroke="none" points="508,-420 508,-451 806,-451 806,-420 508,-420"/>
<text text-anchor="start" x="524" y="-431.8" font-family="Times,serif" font-size="14.00" fill="#005a9c">domain:domainlogic:school:TraversalRule:role</text>
</a>
</g>
<g id="a_domain:domainlogic:school:TraversalRule_35"><a xlink:href="domain:domainlogic:school:TraversalRule:dtStart" xlink:title="&lt;TABLE&gt;">
<polygon fill="#ffffff" stroke="none" points="508,-389 508,-420 806,-420 806,-389 508,-389"/>
<text text-anchor="start" x="516.5" y="-400.8" font-family="Times,serif" font-size="14.00" fill="#005a9c">domain:domainlogic:school:TraversalRule:dtStart</text>
</a>
</g>
<g id="a_domain:domainlogic:school:TraversalRule_36"><a xlink:href="domain:domainlogic:school:TraversalRule:dtEnd" xlink:title="&lt;TABLE&gt;">
<polygon fill="#ffffff" stroke="none" points="508,-358 508,-389 806,-389 806,-358 508,-358"/>
<text text-anchor="start" x="518.5" y="-369.8" font-family="Times,serif" font-size="14.00" fill="#005a9c">domain:domainlogic:school:TraversalRule:dtEnd</text>
</a>
</g>
</g>
<!-- domain_domainlogic_school_TraversalRule&#45;&gt;domain_domainlogic_school_Resource -->
<g id="edge17" class="edge"><title>domain_domainlogic_school_TraversalRule:domain_domainlogic_school_TraversalRule&#45;&gt;domain_domainlogic_school_Resource</title>
<path fill="none" stroke="black" d="M806,-467C952.022,-467 988.745,-462.951 1134,-448 1148.2,-446.538 1162.99,-444.764 1177.73,-442.832"/>
<polygon fill="none" stroke="black" points="1178.47,-446.264 1187.91,-441.47 1177.54,-439.326 1178.47,-446.264"/>
</g>
<!-- domain_domainlogic_school_Source -->
<g id="domain:domainlogic:school:Source" class="node"><title>domain_domainlogic_school_Source</title>
<g id="a_domain:domainlogic:school:Source_37"><a xlink:href="domain:domainlogic:school:Source" xlink:title="domain:domainlogic:school:Source">
<polygon fill="#dddddd" stroke="none" points="916,-405 916,-437 1060,-437 1060,-405 916,-405"/>
<text text-anchor="start" x="924.5" y="-417.3" font-family="Times,serif" font-size="14.00" fill="#0000cc">Источник отношения</text>
</a>
</g>
</g>
<!-- domain_domainlogic_school_TraversalRule&#45;&gt;domain_domainlogic_school_Source -->
<g id="edge3" class="edge"><title>domain_domainlogic_school_TraversalRule&#45;&gt;domain_domainlogic_school_Source</title>
<path fill="none" stroke="black" d="M818.256,-421C852.573,-421 887.136,-421 915.966,-421"/>
<polygon fill="none" stroke="black" points="818.138,-421 812.138,-425 806.138,-421 812.138,-417 818.138,-421"/>
</g>
<!-- domain_domainlogic_school_Destination -->
<g id="domain:domainlogic:school:Destination" class="node"><title>domain_domainlogic_school_Destination</title>
<g id="a_domain:domainlogic:school:Destination_38"><a xlink:href="domain:domainlogic:school:Destination" xlink:title="domain:domainlogic:school:Destination">
<polygon fill="#dddddd" stroke="none" points="911,-145 911,-177 1066,-177 1066,-145 911,-145"/>
<text text-anchor="start" x="919.5" y="-157.3" font-family="Times,serif" font-size="14.00" fill="#0000cc">Назначение отношения</text>
</a>
</g>
</g>
<!-- domain_domainlogic_school_TraversalRule&#45;&gt;domain_domainlogic_school_Destination -->
<g id="edge2" class="edge"><title>domain_domainlogic_school_TraversalRule&#45;&gt;domain_domainlogic_school_Destination</title>
<path fill="none" stroke="black" d="M696.417,-348.157C728.251,-295.203 778.503,-226.341 842,-188 862.386,-175.69 887.096,-168.761 910.298,-164.928"/>
<polygon fill="none" stroke="black" points="696.399,-348.189 696.793,-355.389 690.298,-358.522 689.904,-351.322 696.399,-348.189"/>
</g>
<!-- domain_domainlogic_school_Source&#45;&gt;domain_domainlogic_school_Resource -->
<g id="edge18" class="edge"><title>domain_domainlogic_school_Source:domain_domainlogic_school_Source&#45;&gt;domain_domainlogic_school_Resource</title>
<path fill="none" stroke="black" d="M1060.36,-421C1094.75,-421 1137.21,-421 1177.58,-421"/>
<polygon fill="none" stroke="black" points="1177.79,-424.5 1187.79,-421 1177.79,-417.5 1177.79,-424.5"/>
</g>
<!-- domain_domainlogic_school_Destination&#45;&gt;domain_domainlogic_school_Resource -->
<g id="edge19" class="edge"><title>domain_domainlogic_school_Destination:domain_domainlogic_school_Destination&#45;&gt;domain_domainlogic_school_Resource</title>
<path fill="none" stroke="black" d="M1066.22,-164.947C1089.26,-168.781 1113.79,-175.706 1134,-188 1210.95,-234.808 1267.91,-326.911 1296.14,-380.228"/>
<polygon fill="none" stroke="black" points="1293.19,-382.14 1300.91,-389.394 1299.4,-378.908 1293.19,-382.14"/>
</g>
</g>
</svg>
