<?xml version="1.0" encoding="UTF-8" standalone="no"?>
<!DOCTYPE svg PUBLIC "-//W3C//DTD SVG 1.1//EN"
 "http://www.w3.org/Graphics/SVG/1.1/DTD/svg11.dtd">
<!-- Generated by graphviz version 2.36.0 (20140111.2315)
 -->
<!-- Title: usecase_ucpackage_domainlogic Pages: 1 -->
<svg width="696pt" height="213pt"
 viewBox="0.00 0.00 696.00 213.00" xmlns="http://www.w3.org/2000/svg" xmlns:xlink="http://www.w3.org/1999/xlink">
<g id="graph0" class="graph" transform="scale(1 1) rotate(0) translate(4 209)">
<title>usecase_ucpackage_domainlogic</title>
<polygon fill="white" stroke="none" points="-4,4 -4,-209 692,-209 692,4 -4,4"/>
<g id="clust1" class="cluster"><title>clusterucpackage_domainlogic_User</title>
<g id="a_clust1"><a xlink:href="domain:domainlogic:actors:User" xlink:title="Пользователь">
<text text-anchor="middle" x="44" y="-26" font-family="Tahoma" font-size="10.00">Пользователь</text>
</a>
</g>
</g>
<g id="clust2" class="cluster"><title>clusterucpackage_domainlogic_AutorizedUser</title>
<g id="a_clust2"><a xlink:href="domain:domainlogic:actors:AutorizedUser" xlink:title="Авторизованый\nпользователь">
<text text-anchor="middle" x="44" y="-124" font-family="Tahoma" font-size="10.00">Авторизованый</text>
<text text-anchor="middle" x="44" y="-113" font-family="Tahoma" font-size="10.00">пользователь</text>
</a>
</g>
</g>
<g id="clust3" class="cluster"><title>cluster_package</title>
<polygon fill="none" stroke="black" stroke-width="2" stroke-dasharray="5,2" points="118,-8 118,-197 680,-197 680,-8 118,-8"/>
<text text-anchor="middle" x="399" y="-181.8" font-family="Times,serif" font-size="14.00">ucpackage:domainlogic</text>
</g>
<!-- ucpackage_domainlogic_User -->
<g id="node1" class="node"><title>ucpackage_domainlogic_User</title>
<image xlink:href="/Users/kolpakov/vm/localhost/domainlogic/src/resources/images/stickman.svg" width="37.5px" height="40.5px" preserveAspectRatio="xMinYMin meet" x="25.25" y="-85.25"/>
</g>
<!-- ucpackage_domainlogic_In -->
<g id="node3" class="node"><title>ucpackage_domainlogic_In</title>
<g id="a_node3"><a xlink:href="ucpackage:domainlogic:In" xlink:title="ucpackage:domainlogic:In">
<ellipse fill="none" stroke="grey" stroke-width="2" cx="169" cy="-65" rx="43.2674" ry="24.0833"/>
<text text-anchor="middle" x="169" y="-68.4" font-family="Tahoma" font-size="12.00">Заходит</text>
<text text-anchor="middle" x="169" y="-55.4" font-family="Tahoma" font-size="12.00">на сайт</text>
</a>
</g>
</g>
<!-- ucpackage_domainlogic_User&#45;&gt;ucpackage_domainlogic_In -->
<g id="edge1" class="edge"><title>ucpackage_domainlogic_User&#45;&gt;ucpackage_domainlogic_In</title>
<path fill="none" stroke="grey" d="M71.0851,-65C86.8813,-65 107.406,-65 125.498,-65"/>
</g>
<!-- ucpackage_domainlogic_AutorizedUser -->
<g id="node2" class="node"><title>ucpackage_domainlogic_AutorizedUser</title>
<image xlink:href="/Users/kolpakov/vm/localhost/domainlogic/src/resources/images/stickman.svg" width="37.5px" height="40.5px" preserveAspectRatio="xMinYMin meet" x="25.25" y="-183.25"/>
</g>
<!-- ucpackage_domainlogic_UseTimeMachine -->
<g id="node4" class="node"><title>ucpackage_domainlogic_UseTimeMachine</title>
<g id="a_node4"><a xlink:href="ucpackage:domainlogic:UseTimeMachine" xlink:title="ucpackage:domainlogic:UseTimeMachine">
<ellipse fill="none" stroke="grey" stroke-width="2" cx="368" cy="-49" rx="55.7232" ry="33.4697"/>
<text text-anchor="middle" x="368" y="-58.9" font-family="Tahoma" font-size="12.00">Использует</text>
<text text-anchor="middle" x="368" y="-45.9" font-family="Tahoma" font-size="12.00">&#39;машину</text>
<text text-anchor="middle" x="368" y="-32.9" font-family="Tahoma" font-size="12.00">времени&#39;</text>
</a>
</g>
</g>
<!-- ucpackage_domainlogic_In&#45;&gt;ucpackage_domainlogic_UseTimeMachine -->
<g id="edge2" class="edge"><title>ucpackage_domainlogic_In&#45;&gt;ucpackage_domainlogic_UseTimeMachine</title>
<path fill="none" stroke="red" stroke-width="2" stroke-dasharray="5,2" d="M211.779,-61.6068C238.047,-59.4733 272.48,-56.6768 302.239,-54.2598"/>
<polygon fill="red" stroke="red" stroke-width="2" points="312.549,-53.4224 302.947,-58.7172 307.606,-54.3255 302.623,-54.7303 302.582,-54.232 302.542,-53.7336 307.525,-53.3288 302.218,-49.7468 312.549,-53.4224 312.549,-53.4224"/>
<text text-anchor="middle" x="254" y="-63" font-family="Tahoma" font-size="10.00">«proceed»</text>
</g>
<!-- ucpackage_domainlogic_UseDocsFeed -->
<g id="node5" class="node"><title>ucpackage_domainlogic_UseDocsFeed</title>
<g id="a_node5"><a xlink:href="ucpackage:domainlogic:UseDocsFeed" xlink:title="ucpackage:domainlogic:UseDocsFeed">
<ellipse fill="none" stroke="grey" stroke-width="2" cx="368" cy="-133" rx="71.3357" ry="33.4697"/>
<text text-anchor="middle" x="368" y="-142.9" font-family="Tahoma" font-size="12.00">Просматривает</text>
<text text-anchor="middle" x="368" y="-129.9" font-family="Tahoma" font-size="12.00">ленту</text>
<text text-anchor="middle" x="368" y="-116.9" font-family="Tahoma" font-size="12.00">документов</text>
</a>
</g>
</g>
<!-- ucpackage_domainlogic_In&#45;&gt;ucpackage_domainlogic_UseDocsFeed -->
<g id="edge3" class="edge"><title>ucpackage_domainlogic_In&#45;&gt;ucpackage_domainlogic_UseDocsFeed</title>
<path fill="none" stroke="red" stroke-width="2" stroke-dasharray="5,2" d="M206.133,-77.4722C232.507,-86.576 269.015,-99.1779 300.587,-110.076"/>
<polygon fill="red" stroke="red" stroke-width="2" points="310.209,-113.397 299.288,-114.388 305.32,-112.238 300.594,-110.607 300.757,-110.134 300.92,-109.662 305.646,-111.293 302.225,-105.881 310.209,-113.397 310.209,-113.397"/>
<text text-anchor="middle" x="254" y="-104" font-family="Tahoma" font-size="10.00">«proceed»</text>
</g>
<!-- ucpackage_domainlogic_LookAtDocument -->
<g id="node6" class="node"><title>ucpackage_domainlogic_LookAtDocument</title>
<g id="a_node6"><a xlink:href="ucpackage:domainlogic:LookAtDocument" xlink:title="ucpackage:domainlogic:LookAtDocument">
<ellipse fill="none" stroke="grey" stroke-width="2" cx="598" cy="-124" rx="73.5782" ry="42.3529"/>
<text text-anchor="middle" x="598" y="-140.4" font-family="Tahoma" font-size="12.00">Просматривает</text>
<text text-anchor="middle" x="598" y="-127.4" font-family="Tahoma" font-size="12.00">информацию</text>
<text text-anchor="middle" x="598" y="-114.4" font-family="Tahoma" font-size="12.00">по конкретному</text>
<text text-anchor="middle" x="598" y="-101.4" font-family="Tahoma" font-size="12.00">документу</text>
</a>
</g>
</g>
<!-- ucpackage_domainlogic_UseDocsFeed&#45;&gt;ucpackage_domainlogic_LookAtDocument -->
<g id="edge4" class="edge"><title>ucpackage_domainlogic_UseDocsFeed&#45;&gt;ucpackage_domainlogic_LookAtDocument</title>
<path fill="none" stroke="red" stroke-width="2" stroke-dasharray="5,2" d="M439.268,-130.226C463.073,-129.287 489.876,-128.229 514.541,-127.255"/>
<polygon fill="red" stroke="red" stroke-width="2" points="524.601,-126.858 514.787,-131.749 519.625,-127.555 514.629,-127.752 514.609,-127.252 514.589,-126.753 519.585,-126.555 514.431,-122.756 524.601,-126.858 524.601,-126.858"/>
<text text-anchor="middle" x="482" y="-132" font-family="Tahoma" font-size="10.00">«proceed»</text>
</g>
</g>
</svg>
