<?xml version="1.0" encoding="UTF-8" standalone="no"?>
<!DOCTYPE svg PUBLIC "-//W3C//DTD SVG 1.1//EN"
 "http://www.w3.org/Graphics/SVG/1.1/DTD/svg11.dtd">
<!-- Generated by graphviz version 2.36.0 (20140111.2315)
 -->
<!-- Title: domain_domainlogic_school Pages: 1 -->
<svg width="1436pt" height="771pt"
 viewBox="0.00 0.00 1436.00 771.00" xmlns="http://www.w3.org/2000/svg" xmlns:xlink="http://www.w3.org/1999/xlink">
<g id="graph0" class="graph" transform="scale(1 1) rotate(0) translate(4 767)">
<title>domain_domainlogic_school</title>
<polygon fill="white" stroke="none" points="-4,4 -4,-767 1432,-767 1432,4 -4,4"/>
<!-- domain_domainlogic_school_Resource -->
<g id="domain:domainlogic:school:Resource" class="node"><title>domain_domainlogic_school_Resource</title>
<g id="a_domain:domainlogic:school:Resource_0"><a xlink:href="domain:domainlogic:school:Resource" xlink:title="domain:domainlogic:school:Resource">
<polygon fill="#dddddd" stroke="none" points="1152,-420 1152,-452 1410,-452 1410,-420 1152,-420"/>
<text text-anchor="start" x="1260.5" y="-432.3" font-family="Times,serif" font-size="14.00" fill="#0000cc">Ресурс</text>
</a>
</g>
<g id="a_domain:domainlogic:school:Resource_1"><a xlink:href="domain:domainlogic:school:Resource:URI" xlink:title="&lt;TABLE&gt;">
<polygon fill="#ffffff" stroke="none" points="1152,-389 1152,-420 1410,-420 1410,-389 1152,-389"/>
<text text-anchor="start" x="1160.5" y="-400.8" font-family="Times,serif" font-size="14.00" fill="#005a9c">domain:domainlogic:school:Resource:URI</text>
</a>
</g>
</g>
<!-- domain_domainlogic_school_Union -->
<g id="domain:domainlogic:school:Union" class="node"><title>domain_domainlogic_school_Union</title>
<g id="a_domain:domainlogic:school:Union_2"><a xlink:href="domain:domainlogic:school:Union" xlink:title="domain:domainlogic:school:Union">
<polygon fill="#dddddd" stroke="none" points="822,-731 822,-763 1082,-763 1082,-731 822,-731"/>
<text text-anchor="start" x="912.5" y="-743.3" font-family="Times,serif" font-size="14.00" fill="#0000cc">Объединение</text>
</a>
</g>
<g id="a_domain:domainlogic:school:Union_3"><a xlink:href="domain:domainlogic:school:Union:UUID" xlink:title="&lt;TABLE&gt;">
<polygon fill="#ffffff" stroke="none" points="822,-700 822,-731 1082,-731 1082,-700 822,-700"/>
<text text-anchor="start" x="834.5" y="-711.8" font-family="Times,serif" font-size="14.00" fill="#005a9c">domain:domainlogic:school:Union:UUID</text>
</a>
</g>
<g id="a_domain:domainlogic:school:Union_4"><a xlink:href="domain:domainlogic:school:Union:dtOpen" xlink:title="&lt;TABLE&gt;">
<polygon fill="#ffffff" stroke="none" points="822,-669 822,-700 1082,-700 1082,-669 822,-669"/>
<text text-anchor="start" x="831.5" y="-680.8" font-family="Times,serif" font-size="14.00" fill="#005a9c">domain:domainlogic:school:Union:dtOpen</text>
</a>
</g>
<g id="a_domain:domainlogic:school:Union_5"><a xlink:href="domain:domainlogic:school:Union:dtClose" xlink:title="&lt;TABLE&gt;">
<polygon fill="#ffffff" stroke="none" points="822,-638 822,-669 1082,-669 1082,-638 822,-638"/>
<text text-anchor="start" x="831" y="-649.8" font-family="Times,serif" font-size="14.00" fill="#005a9c">domain:domainlogic:school:Union:dtClose</text>
</a>
</g>
<g id="a_domain:domainlogic:school:Union_6"><a xlink:href="domain:domainlogic:school:Union:mission" xlink:title="&lt;TABLE&gt;">
<polygon fill="#ffffff" stroke="none" points="822,-607 822,-638 1082,-638 1082,-607 822,-607"/>
<text text-anchor="start" x="830.5" y="-618.8" font-family="Times,serif" font-size="14.00" fill="#005a9c">domain:domainlogic:school:Union:mission</text>
</a>
</g>
</g>
<!-- domain_domainlogic_school_Union&#45;&gt;domain_domainlogic_school_Resource -->
<g id="edge8" class="edge"><title>domain_domainlogic_school_Union:domain_domainlogic_school_Union&#45;&gt;domain_domainlogic_school_Resource</title>
<path fill="none" stroke="black" d="M1083,-747C1146.31,-747 1103.27,-669.347 1134,-614 1165.8,-556.732 1213.02,-497.634 1245.08,-460.176"/>
<polygon fill="none" stroke="black" points="1247.8,-462.379 1251.68,-452.519 1242.5,-457.808 1247.8,-462.379"/>
</g>
<!-- domain_domainlogic_school_HistoryName -->
<g id="domain:domainlogic:school:HistoryName" class="node"><title>domain_domainlogic_school_HistoryName</title>
<g id="a_domain:domainlogic:school:HistoryName_7"><a xlink:href="domain:domainlogic:school:HistoryName" xlink:title="domain:domainlogic:school:HistoryName">
<polygon fill="#dddddd" stroke="none" points="1134,-715 1134,-747 1428,-747 1428,-715 1134,-715"/>
<text text-anchor="start" x="1196" y="-727.3" font-family="Times,serif" font-size="14.00" fill="#0000cc">Историческое наименование</text>
</a>
</g>
<g id="a_domain:domainlogic:school:HistoryName_8"><a xlink:href="domain:domainlogic:school:HistoryName:name" xlink:title="&lt;TABLE&gt;">
<polygon fill="#ffffff" stroke="none" points="1134,-684 1134,-715 1428,-715 1428,-684 1134,-684"/>
<text text-anchor="start" x="1146" y="-695.8" font-family="Times,serif" font-size="14.00" fill="#005a9c">domain:domainlogic:school:HistoryName:name</text>
</a>
</g>
<g id="a_domain:domainlogic:school:HistoryName_9"><a xlink:href="domain:domainlogic:school:HistoryName:dtStart" xlink:title="&lt;TABLE&gt;">
<polygon fill="#ffffff" stroke="none" points="1134,-653 1134,-684 1428,-684 1428,-653 1134,-653"/>
<text text-anchor="start" x="1142.5" y="-664.8" font-family="Times,serif" font-size="14.00" fill="#005a9c">domain:domainlogic:school:HistoryName:dtStart</text>
</a>
</g>
<g id="a_domain:domainlogic:school:HistoryName_10"><a xlink:href="domain:domainlogic:school:HistoryName:dtEnd" xlink:title="&lt;TABLE&gt;">
<polygon fill="#ffffff" stroke="none" points="1134,-622 1134,-653 1428,-653 1428,-622 1134,-622"/>
<text text-anchor="start" x="1144.5" y="-633.8" font-family="Times,serif" font-size="14.00" fill="#005a9c">domain:domainlogic:school:HistoryName:dtEnd</text>
</a>
</g>
</g>
<!-- domain_domainlogic_school_Union&#45;&gt;domain_domainlogic_school_HistoryName -->
<g id="edge4" class="edge"><title>domain_domainlogic_school_Union&#45;&gt;domain_domainlogic_school_HistoryName</title>
<path fill="none" stroke="black" d="M1094.64,-685C1107.65,-685 1120.84,-685 1133.89,-685"/>
<polygon fill="none" stroke="black" points="1094.24,-685 1088.24,-689 1082.24,-685 1088.24,-681 1094.24,-685"/>
<text text-anchor="middle" x="1129.89" y="-673.8" font-family="Times,serif" font-size="14.00">*</text>
</g>
<!-- domain_domainlogic_school_School -->
<g id="domain:domainlogic:school:School" class="node"><title>domain_domainlogic_school_School</title>
<g id="a_domain:domainlogic:school:School_11"><a xlink:href="domain:domainlogic:school:School" xlink:title="domain:domainlogic:school:School">
<polygon fill="#dddddd" stroke="none" points="0,-699 0,-731 260,-731 260,-699 0,-699"/>
<text text-anchor="start" x="109.5" y="-711.3" font-family="Times,serif" font-size="14.00" fill="#0000cc">Школа</text>
</a>
</g>
<g id="a_domain:domainlogic:school:School_12"><a xlink:href="domain:domainlogic:school:Union:mission" xlink:title="&lt;TABLE&gt;">
<polygon fill="#ffffff" stroke="none" points="0,-668 0,-699 260,-699 260,-668 0,-668"/>
<text text-anchor="start" x="8.5" y="-679.8" font-family="Times,serif" font-size="14.00" fill="#005a9c">domain:domainlogic:school:Union:mission</text>
</a>
</g>
</g>
<!-- domain_domainlogic_school_School&#45;&gt;domain_domainlogic_school_Union -->
<g id="edge9" class="edge"><title>domain_domainlogic_school_School:domain_domainlogic_school_School&#45;&gt;domain_domainlogic_school_Union</title>
<path fill="none" stroke="black" d="M260,-715C276.865,-715 279.352,-724.298 296,-727 357.419,-736.967 373.806,-728.86 436,-727 584.644,-722.554 621.897,-720.422 770,-707 783.445,-705.781 797.434,-704.358 811.412,-702.833"/>
<polygon fill="none" stroke="black" points="812.028,-706.286 821.581,-701.705 811.256,-699.329 812.028,-706.286"/>
</g>
<!-- domain_domainlogic_school_Staff -->
<g id="domain:domainlogic:school:Staff" class="node"><title>domain_domainlogic_school_Staff</title>
<g id="a_domain:domainlogic:school:Staff_13"><a xlink:href="domain:domainlogic:school:Staff" xlink:title="domain:domainlogic:school:Staff">
<polygon fill="#dddddd" stroke="none" points="297,-684 297,-716 436,-716 436,-684 297,-684"/>
<text text-anchor="start" x="305.5" y="-696.3" font-family="Times,serif" font-size="14.00" fill="#0000cc">Школьный персонал</text>
</a>
</g>
</g>
<!-- domain_domainlogic_school_School&#45;&gt;domain_domainlogic_school_Staff -->
<g id="edge1" class="edge"><title>domain_domainlogic_school_School&#45;&gt;domain_domainlogic_school_Staff</title>
<path fill="none" stroke="black" d="M272.413,-700C280.6,-700 288.619,-700 296.302,-700"/>
<polygon fill="none" stroke="black" points="272.32,-700 266.319,-704 260.32,-700 266.32,-696 272.32,-700"/>
</g>
<!-- domain_domainlogic_school_Year -->
<g id="domain:domainlogic:school:Year" class="node"><title>domain_domainlogic_school_Year</title>
<g id="a_domain:domainlogic:school:Year_14"><a xlink:href="domain:domainlogic:school:Year" xlink:title="domain:domainlogic:school:Year">
<polygon fill="#dddddd" stroke="none" points="326,-630 326,-662 407,-662 407,-630 326,-630"/>
<text text-anchor="start" x="334.5" y="-642.3" font-family="Times,serif" font-size="14.00" fill="#0000cc">Параллель</text>
</a>
</g>
</g>
<!-- domain_domainlogic_school_School&#45;&gt;domain_domainlogic_school_Year -->
<g id="edge5" class="edge"><title>domain_domainlogic_school_School&#45;&gt;domain_domainlogic_school_Year</title>
<path fill="none" stroke="black" d="M272.174,-667.421C291.591,-662.941 310.079,-658.674 325.371,-655.145"/>
<polygon fill="none" stroke="black" points="272.012,-667.459 267.065,-672.705 260.32,-670.157 265.266,-664.91 272.012,-667.459"/>
<text text-anchor="middle" x="321.371" y="-643.945" font-family="Times,serif" font-size="14.00">*</text>
</g>
<!-- domain_domainlogic_school_Staff&#45;&gt;domain_domainlogic_school_Union -->
<g id="edge10" class="edge"><title>domain_domainlogic_school_Staff:domain_domainlogic_school_Staff&#45;&gt;domain_domainlogic_school_Union</title>
<path fill="none" stroke="black" d="M436.019,-698.25C527.663,-695.892 692.96,-691.639 811.584,-688.587"/>
<polygon fill="none" stroke="black" points="811.927,-692.079 821.834,-688.323 811.747,-685.082 811.927,-692.079"/>
</g>
<!-- domain_domainlogic_school_Year&#45;&gt;domain_domainlogic_school_Union -->
<g id="edge11" class="edge"><title>domain_domainlogic_school_Year:domain_domainlogic_school_Year&#45;&gt;domain_domainlogic_school_Union</title>
<path fill="none" stroke="black" d="M407.158,-648.619C488.46,-654.058 679.016,-666.806 811.466,-675.666"/>
<polygon fill="none" stroke="black" points="811.485,-679.175 821.696,-676.35 811.952,-672.19 811.485,-679.175"/>
</g>
<!-- domain_domainlogic_school_Form -->
<g id="domain:domainlogic:school:Form" class="node"><title>domain_domainlogic_school_Form</title>
<g id="a_domain:domainlogic:school:Form_15"><a xlink:href="domain:domainlogic:school:Form" xlink:title="domain:domainlogic:school:Form">
<polygon fill="#dddddd" stroke="none" points="595,-604 595,-636 648,-636 648,-604 595,-604"/>
<text text-anchor="start" x="603.5" y="-616.3" font-family="Times,serif" font-size="14.00" fill="#0000cc">Класс</text>
</a>
</g>
</g>
<!-- domain_domainlogic_school_Year&#45;&gt;domain_domainlogic_school_Form -->
<g id="edge6" class="edge"><title>domain_domainlogic_school_Year&#45;&gt;domain_domainlogic_school_Form</title>
<path fill="none" stroke="black" d="M418.766,-640.68C471.985,-635.211 552.717,-626.914 593.877,-622.685"/>
<polygon fill="none" stroke="black" points="418.468,-640.711 412.909,-645.303 406.531,-641.938 412.091,-637.345 418.468,-640.711"/>
<text text-anchor="middle" x="589.877" y="-611.485" font-family="Times,serif" font-size="14.00">*</text>
</g>
<!-- domain_domainlogic_school_Form&#45;&gt;domain_domainlogic_school_Union -->
<g id="edge12" class="edge"><title>domain_domainlogic_school_Form:domain_domainlogic_school_Form&#45;&gt;domain_domainlogic_school_Union</title>
<path fill="none" stroke="black" d="M648.193,-624.993C683.435,-631.976 750.09,-645.185 811.91,-657.436"/>
<polygon fill="none" stroke="black" points="811.295,-660.882 821.784,-659.393 812.655,-654.016 811.295,-660.882"/>
</g>
<!-- domain_domainlogic_school_Person -->
<g id="domain:domainlogic:school:Person" class="node"><title>domain_domainlogic_school_Person</title>
<g id="a_domain:domainlogic:school:Person_16"><a xlink:href="domain:domainlogic:school:Person" xlink:title="domain:domainlogic:school:Person">
<polygon fill="#dddddd" stroke="none" points="806,-352 806,-384 1098,-384 1098,-352 806,-352"/>
<text text-anchor="start" x="927" y="-364.3" font-family="Times,serif" font-size="14.00" fill="#0000cc">Персона</text>
</a>
</g>
<g id="a_domain:domainlogic:school:Person_17"><a xlink:href="domain:domainlogic:school:Person:firstName" xlink:title="&lt;TABLE&gt;">
<polygon fill="#ffffff" stroke="none" points="806,-321 806,-352 1098,-352 1098,-321 806,-321"/>
<text text-anchor="start" x="823" y="-332.8" font-family="Times,serif" font-size="14.00" fill="#005a9c">domain:domainlogic:school:Person:firstName</text>
</a>
</g>
<g id="a_domain:domainlogic:school:Person_18"><a xlink:href="domain:domainlogic:school:Person:secondName" xlink:title="&lt;TABLE&gt;">
<polygon fill="#ffffff" stroke="none" points="806,-290 806,-321 1098,-321 1098,-290 806,-290"/>
<text text-anchor="start" x="814.5" y="-301.8" font-family="Times,serif" font-size="14.00" fill="#005a9c">domain:domainlogic:school:Person:secondName</text>
</a>
</g>
<g id="a_domain:domainlogic:school:Person_19"><a xlink:href="domain:domainlogic:school:Person:middleName" xlink:title="&lt;TABLE&gt;">
<polygon fill="#ffffff" stroke="none" points="806,-259 806,-290 1098,-290 1098,-259 806,-259"/>
<text text-anchor="start" x="814.5" y="-270.8" font-family="Times,serif" font-size="14.00" fill="#005a9c">domain:domainlogic:school:Person:middleName</text>
</a>
</g>
<g id="a_domain:domainlogic:school:Person_20"><a xlink:href="domain:domainlogic:school:Person:enName" xlink:title="&lt;TABLE&gt;">
<polygon fill="#ffffff" stroke="none" points="806,-228 806,-259 1098,-259 1098,-228 806,-228"/>
<text text-anchor="start" x="827.5" y="-239.8" font-family="Times,serif" font-size="14.00" fill="#005a9c">domain:domainlogic:school:Person:enName</text>
</a>
</g>
<g id="a_domain:domainlogic:school:Person_21"><a xlink:href="domain:domainlogic:school:Person:DOB" xlink:title="&lt;TABLE&gt;">
<polygon fill="#ffffff" stroke="none" points="806,-197 806,-228 1098,-228 1098,-197 806,-197"/>
<text text-anchor="start" x="836" y="-208.8" font-family="Times,serif" font-size="14.00" fill="#005a9c">domain:domainlogic:school:Person:DOB</text>
</a>
</g>
</g>
<!-- domain_domainlogic_school_Person&#45;&gt;domain_domainlogic_school_Resource -->
<g id="edge13" class="edge"><title>domain_domainlogic_school_Person:domain_domainlogic_school_Person&#45;&gt;domain_domainlogic_school_Resource</title>
<path fill="none" stroke="black" d="M1098,-368C1131.41,-368 1166.94,-376.334 1197.66,-386.392"/>
<polygon fill="none" stroke="black" points="1196.86,-389.817 1207.45,-389.71 1199.1,-383.187 1196.86,-389.817"/>
</g>
<!-- domain_domainlogic_school_Documents -->
<g id="domain:domainlogic:school:Documents" class="node"><title>domain_domainlogic_school_Documents</title>
<g id="a_domain:domainlogic:school:Documents_22"><a xlink:href="domain:domainlogic:school:Documents" xlink:title="domain:domainlogic:school:Documents">
<polygon fill="#dddddd" stroke="none" points="544,-526 544,-558 699,-558 699,-526 544,-526"/>
<text text-anchor="start" x="552.5" y="-538.3" font-family="Times,serif" font-size="14.00" fill="#0000cc">Коллекция документов</text>
</a>
</g>
</g>
<!-- domain_domainlogic_school_Document -->
<g id="domain:domainlogic:school:Document" class="node"><title>domain_domainlogic_school_Document</title>
<g id="a_domain:domainlogic:school:Document_23"><a xlink:href="domain:domainlogic:school:Document" xlink:title="domain:domainlogic:school:Document">
<polygon fill="#dddddd" stroke="none" points="821,-557 821,-589 1083,-589 1083,-557 821,-557"/>
<text text-anchor="start" x="922.5" y="-569.3" font-family="Times,serif" font-size="14.00" fill="#0000cc">Документ</text>
</a>
</g>
<g id="a_domain:domainlogic:school:Document_24"><a xlink:href="domain:domainlogic:school:Document:href" xlink:title="&lt;TABLE&gt;">
<polygon fill="#ffffff" stroke="none" points="821,-526 821,-557 1083,-557 1083,-526 821,-526"/>
<text text-anchor="start" x="829.5" y="-537.8" font-family="Times,serif" font-size="14.00" fill="#005a9c">domain:domainlogic:school:Document:href</text>
</a>
</g>
<g id="a_domain:domainlogic:school:Document_25"><a xlink:href="domain:domainlogic:school:Document:dt" xlink:title="&lt;TABLE&gt;">
<polygon fill="#ffffff" stroke="none" points="821,-495 821,-526 1083,-526 1083,-495 821,-495"/>
<text text-anchor="start" x="835" y="-506.8" font-family="Times,serif" font-size="14.00" fill="#005a9c">domain:domainlogic:school:Document:dt</text>
</a>
</g>
</g>
<!-- domain_domainlogic_school_Documents&#45;&gt;domain_domainlogic_school_Document -->
<g id="edge7" class="edge"><title>domain_domainlogic_school_Documents&#45;&gt;domain_domainlogic_school_Document</title>
<path fill="none" stroke="black" d="M710.928,-542C744.77,-542 784.064,-542 820.941,-542"/>
<polygon fill="none" stroke="black" points="710.721,-542 704.721,-546 698.721,-542 704.721,-538 710.721,-542"/>
<text text-anchor="middle" x="816.941" y="-530.8" font-family="Times,serif" font-size="14.00">*</text>
</g>
<!-- domain_domainlogic_school_Document&#45;&gt;domain_domainlogic_school_Resource -->
<g id="edge14" class="edge"><title>domain_domainlogic_school_Document:domain_domainlogic_school_Document&#45;&gt;domain_domainlogic_school_Resource</title>
<path fill="none" stroke="black" d="M1084,-573C1157.37,-573 1219.91,-505.66 1253.52,-460.623"/>
<polygon fill="none" stroke="black" points="1256.39,-462.634 1259.46,-452.494 1250.73,-458.506 1256.39,-462.634"/>
</g>
<!-- domain_domainlogic_school_LogItem -->
<g id="domain:domainlogic:school:LogItem" class="node"><title>domain_domainlogic_school_LogItem</title>
<g id="a_domain:domainlogic:school:LogItem_26"><a xlink:href="domain:domainlogic:school:LogItem" xlink:title="domain:domainlogic:school:LogItem">
<polygon fill="#dddddd" stroke="none" points="814,-92 814,-124 1091,-124 1091,-92 814,-92"/>
<text text-anchor="start" x="866.5" y="-104.3" font-family="Times,serif" font-size="14.00" fill="#0000cc">Запись в журнале изменений</text>
</a>
</g>
<g id="a_domain:domainlogic:school:LogItem_27"><a xlink:href="domain:domainlogic:school:LogItem:dtCreate" xlink:title="&lt;TABLE&gt;">
<polygon fill="#ffffff" stroke="none" points="814,-61 814,-92 1091,-92 1091,-61 814,-61"/>
<text text-anchor="start" x="822.5" y="-72.8" font-family="Times,serif" font-size="14.00" fill="#005a9c">domain:domainlogic:school:LogItem:dtCreate</text>
</a>
</g>
<g id="a_domain:domainlogic:school:LogItem_28"><a xlink:href="domain:domainlogic:school:LogItem:action" xlink:title="&lt;TABLE&gt;">
<polygon fill="#ffffff" stroke="none" points="814,-30 814,-61 1091,-61 1091,-30 814,-30"/>
<text text-anchor="start" x="829" y="-41.8" font-family="Times,serif" font-size="14.00" fill="#005a9c">domain:domainlogic:school:LogItem:action</text>
</a>
</g>
<g id="a_domain:domainlogic:school:LogItem_29"><a xlink:href="domain:domainlogic:school:LogItem:author" xlink:title="&lt;TABLE&gt;">
<polygon fill="#ffffff" stroke="none" points="814,1 814,-30 1091,-30 1091,1 814,1"/>
<text text-anchor="start" x="828" y="-10.8" font-family="Times,serif" font-size="14.00" fill="#005a9c">domain:domainlogic:school:LogItem:author</text>
</a>
</g>
</g>
<!-- domain_domainlogic_school_LogItem&#45;&gt;domain_domainlogic_school_Resource -->
<g id="edge15" class="edge"><title>domain_domainlogic_school_LogItem:domain_domainlogic_school_LogItem&#45;&gt;domain_domainlogic_school_Resource</title>
<path fill="none" stroke="black" d="M1092,-108C1217.2,-108 1261.12,-294.316 1274.65,-379.451"/>
<polygon fill="none" stroke="black" points="1271.22,-380.196 1276.19,-389.555 1278.14,-379.142 1271.22,-380.196"/>
</g>
<!-- domain_domainlogic_school_TraversalRule -->
<g id="domain:domainlogic:school:TraversalRule" class="node"><title>domain_domainlogic_school_TraversalRule</title>
<g id="a_domain:domainlogic:school:TraversalRule_30"><a xlink:href="domain:domainlogic:school:TraversalRule" xlink:title="domain:domainlogic:school:TraversalRule">
<polygon fill="#dddddd" stroke="none" points="472,-451 472,-483 770,-483 770,-451 472,-451"/>
<text text-anchor="start" x="533.5" y="-463.3" font-family="Times,serif" font-size="14.00" fill="#0000cc">Отношение между ресурсами</text>
</a>
</g>
<g id="a_domain:domainlogic:school:TraversalRule_31"><a xlink:href="domain:domainlogic:school:TraversalRule:role" xlink:title="&lt;TABLE&gt;">
<polygon fill="#ffffff" stroke="none" points="472,-420 472,-451 770,-451 770,-420 472,-420"/>
<text text-anchor="start" x="488" y="-431.8" font-family="Times,serif" font-size="14.00" fill="#005a9c">domain:domainlogic:school:TraversalRule:role</text>
</a>
</g>
<g id="a_domain:domainlogic:school:TraversalRule_32"><a xlink:href="domain:domainlogic:school:TraversalRule:dtStart" xlink:title="&lt;TABLE&gt;">
<polygon fill="#ffffff" stroke="none" points="472,-389 472,-420 770,-420 770,-389 472,-389"/>
<text text-anchor="start" x="480.5" y="-400.8" font-family="Times,serif" font-size="14.00" fill="#005a9c">domain:domainlogic:school:TraversalRule:dtStart</text>
</a>
</g>
<g id="a_domain:domainlogic:school:TraversalRule_33"><a xlink:href="domain:domainlogic:school:TraversalRule:dtEnd" xlink:title="&lt;TABLE&gt;">
<polygon fill="#ffffff" stroke="none" points="472,-358 472,-389 770,-389 770,-358 472,-358"/>
<text text-anchor="start" x="482.5" y="-369.8" font-family="Times,serif" font-size="14.00" fill="#005a9c">domain:domainlogic:school:TraversalRule:dtEnd</text>
</a>
</g>
</g>
<!-- domain_domainlogic_school_TraversalRule&#45;&gt;domain_domainlogic_school_Resource -->
<g id="edge16" class="edge"><title>domain_domainlogic_school_TraversalRule:domain_domainlogic_school_TraversalRule&#45;&gt;domain_domainlogic_school_Resource</title>
<path fill="none" stroke="black" d="M770,-467C916.022,-467 952.745,-462.951 1098,-448 1112.2,-446.538 1126.99,-444.764 1141.73,-442.832"/>
<polygon fill="none" stroke="black" points="1142.47,-446.264 1151.91,-441.47 1141.54,-439.326 1142.47,-446.264"/>
</g>
<!-- domain_domainlogic_school_Source -->
<g id="domain:domainlogic:school:Source" class="node"><title>domain_domainlogic_school_Source</title>
<g id="a_domain:domainlogic:school:Source_34"><a xlink:href="domain:domainlogic:school:Source" xlink:title="domain:domainlogic:school:Source">
<polygon fill="#dddddd" stroke="none" points="880,-405 880,-437 1024,-437 1024,-405 880,-405"/>
<text text-anchor="start" x="888.5" y="-417.3" font-family="Times,serif" font-size="14.00" fill="#0000cc">Источник отношения</text>
</a>
</g>
</g>
<!-- domain_domainlogic_school_TraversalRule&#45;&gt;domain_domainlogic_school_Source -->
<g id="edge3" class="edge"><title>domain_domainlogic_school_TraversalRule&#45;&gt;domain_domainlogic_school_Source</title>
<path fill="none" stroke="black" d="M782.256,-421C816.573,-421 851.136,-421 879.966,-421"/>
<polygon fill="none" stroke="black" points="782.138,-421 776.138,-425 770.138,-421 776.138,-417 782.138,-421"/>
</g>
<!-- domain_domainlogic_school_Destination -->
<g id="domain:domainlogic:school:Destination" class="node"><title>domain_domainlogic_school_Destination</title>
<g id="a_domain:domainlogic:school:Destination_35"><a xlink:href="domain:domainlogic:school:Destination" xlink:title="domain:domainlogic:school:Destination">
<polygon fill="#dddddd" stroke="none" points="875,-145 875,-177 1030,-177 1030,-145 875,-145"/>
<text text-anchor="start" x="883.5" y="-157.3" font-family="Times,serif" font-size="14.00" fill="#0000cc">Назначение отношения</text>
</a>
</g>
</g>
<!-- domain_domainlogic_school_TraversalRule&#45;&gt;domain_domainlogic_school_Destination -->
<g id="edge2" class="edge"><title>domain_domainlogic_school_TraversalRule&#45;&gt;domain_domainlogic_school_Destination</title>
<path fill="none" stroke="black" d="M660.417,-348.157C692.251,-295.203 742.503,-226.341 806,-188 826.386,-175.69 851.096,-168.761 874.298,-164.928"/>
<polygon fill="none" stroke="black" points="660.399,-348.189 660.793,-355.389 654.298,-358.522 653.904,-351.322 660.399,-348.189"/>
</g>
<!-- domain_domainlogic_school_Source&#45;&gt;domain_domainlogic_school_Resource -->
<g id="edge17" class="edge"><title>domain_domainlogic_school_Source:domain_domainlogic_school_Source&#45;&gt;domain_domainlogic_school_Resource</title>
<path fill="none" stroke="black" d="M1024.36,-421C1058.75,-421 1101.21,-421 1141.58,-421"/>
<polygon fill="none" stroke="black" points="1141.79,-424.5 1151.79,-421 1141.79,-417.5 1141.79,-424.5"/>
</g>
<!-- domain_domainlogic_school_Destination&#45;&gt;domain_domainlogic_school_Resource -->
<g id="edge18" class="edge"><title>domain_domainlogic_school_Destination:domain_domainlogic_school_Destination&#45;&gt;domain_domainlogic_school_Resource</title>
<path fill="none" stroke="black" d="M1030.22,-164.947C1053.26,-168.781 1077.79,-175.706 1098,-188 1174.95,-234.808 1231.91,-326.911 1260.14,-380.228"/>
<polygon fill="none" stroke="black" points="1257.19,-382.14 1264.91,-389.394 1263.4,-378.908 1257.19,-382.14"/>
</g>
</g>
</svg>
